<?xml version="1.0" encoding="UTF-8" standalone="no"?>
<!DOCTYPE svg PUBLIC "-//W3C//DTD SVG 1.1//EN"
 "http://www.w3.org/Graphics/SVG/1.1/DTD/svg11.dtd">
<!-- Generated by graphviz version 13.1.2 (20250808.2320)
 -->
<!-- Title: G Pages: 1 -->
<svg width="364pt" height="329pt"
 viewBox="0.00 0.00 364.00 329.00" xmlns="http://www.w3.org/2000/svg" xmlns:xlink="http://www.w3.org/1999/xlink">
<g id="graph0" class="graph" transform="scale(1 1) rotate(0) translate(4 325.25)">
<title>G</title>
<polygon fill="#1e1e1e" stroke="none" points="-4,4 -4,-325.25 360,-325.25 360,4 -4,4"/>
<g id="clust1" class="cluster">
<title>cluster_cloud</title>
<path fill="#3a1a1a" stroke="#ff4d4d" d="M20,-234C20,-234 336,-234 336,-234 342,-234 348,-240 348,-246 348,-246 348,-301.25 348,-301.25 348,-307.25 342,-313.25 336,-313.25 336,-313.25 20,-313.25 20,-313.25 14,-313.25 8,-307.25 8,-301.25 8,-301.25 8,-246 8,-246 8,-240 14,-234 20,-234"/>
<text xml:space="preserve" text-anchor="middle" x="178" y="-295.95" font-family="Helvetica,sans-Serif" font-size="14.00" fill="#ffb3b3">INTERNET / CLOUD</text>
</g>
<g id="clust2" class="cluster">
<title>cluster_exposed</title>
<path fill="#3a2a12" stroke="#ff9c2a" d="M47,-121C47,-121 290,-121 290,-121 296,-121 302,-127 302,-133 302,-133 302,-188.25 302,-188.25 302,-194.25 296,-200.25 290,-200.25 290,-200.25 47,-200.25 47,-200.25 41,-200.25 35,-194.25 35,-188.25 35,-188.25 35,-133 35,-133 35,-127 41,-121 47,-121"/>
<text xml:space="preserve" text-anchor="middle" x="168.5" y="-182.95" font-family="Helvetica,sans-Serif" font-size="14.00" fill="#ffd3a1">Internet&#45;Exposed Components</text>
</g>
<g id="clust3" class="cluster">
<title>cluster_local</title>
<path fill="#14301d" stroke="#3fbf66" d="M102,-8C102,-8 290,-8 290,-8 296,-8 302,-14 302,-20 302,-20 302,-75.25 302,-75.25 302,-81.25 296,-87.25 290,-87.25 290,-87.25 102,-87.25 102,-87.25 96,-87.25 90,-81.25 90,-75.25 90,-75.25 90,-20 90,-20 90,-14 96,-8 102,-8"/>
<text xml:space="preserve" text-anchor="middle" x="196" y="-69.95" font-family="Helvetica,sans-Serif" font-size="14.00" fill="#b8f2c8">100% Local</text>
</g>
<!-- ai -->
<g id="node1" class="node">
<title>ai</title>
<polygon fill="#d84a4a" stroke="#b03030" stroke-width="2" points="181.62,-281.5 16.38,-281.5 16.38,-242 181.62,-242 181.62,-281.5"/>
<text xml:space="preserve" text-anchor="middle" x="99" y="-264.2" font-family="Helvetica,sans-Serif" font-size="14.00" fill="white">AI Service</text>
<text xml:space="preserve" text-anchor="middle" x="99" y="-248.45" font-family="Helvetica,sans-Serif" font-size="14.00" fill="white">(Anthropic, OpenAI, etc.)</text>
</g>
<!-- agent -->
<g id="node3" class="node">
<title>agent</title>
<polygon fill="#ffb35a" stroke="#cc7a10" stroke-width="2" points="193.12,-168.5 42.88,-168.5 42.88,-129 193.12,-129 193.12,-168.5"/>
<text xml:space="preserve" text-anchor="middle" x="118" y="-151.2" font-family="Helvetica,sans-Serif" font-size="14.00" fill="#1a1a1a">AI Agent</text>
<text xml:space="preserve" text-anchor="middle" x="118" y="-135.45" font-family="Helvetica,sans-Serif" font-size="14.00" fill="#1a1a1a">(Claude Desktop, etc.)</text>
</g>
<!-- ai&#45;&gt;agent -->
<g id="edge1" class="edge">
<title>ai&#45;&gt;agent</title>
<path fill="none" stroke="#cfcfcf" stroke-width="2" d="M102.35,-241.16C105.16,-224.75 109.23,-201.01 112.51,-181.84"/>
<polygon fill="#cfcfcf" stroke="#cfcfcf" stroke-width="2" points="115.93,-182.57 114.17,-172.13 109.03,-181.39 115.93,-182.57"/>
<text xml:space="preserve" text-anchor="middle" x="130.81" y="-210.7" font-family="Helvetica,sans-Serif" font-size="14.00" fill="#cfcfcf">Internet</text>
</g>
<!-- isp -->
<g id="node2" class="node">
<title>isp</title>
<polygon fill="#d84a4a" stroke="#b03030" stroke-width="2" points="339.88,-281.5 200.12,-281.5 200.12,-242 339.88,-242 339.88,-281.5"/>
<text xml:space="preserve" text-anchor="middle" x="270" y="-264.2" font-family="Helvetica,sans-Serif" font-size="14.00" fill="white">Your ISP</text>
<text xml:space="preserve" text-anchor="middle" x="270" y="-248.45" font-family="Helvetica,sans-Serif" font-size="14.00" fill="white">(Internet connection)</text>
</g>
<!-- fritz -->
<g id="node4" class="node">
<title>fritz</title>
<polygon fill="#ffb35a" stroke="#cc7a10" stroke-width="2" points="294.38,-168.5 211.62,-168.5 211.62,-129 294.38,-129 294.38,-168.5"/>
<text xml:space="preserve" text-anchor="middle" x="253" y="-151.2" font-family="Helvetica,sans-Serif" font-size="14.00" fill="#1a1a1a">FRITZ!Box</text>
<text xml:space="preserve" text-anchor="middle" x="253" y="-135.45" font-family="Helvetica,sans-Serif" font-size="14.00" fill="#1a1a1a">Your router</text>
</g>
<!-- isp&#45;&gt;fritz -->
<g id="edge2" class="edge">
<title>isp&#45;&gt;fritz</title>
<path fill="none" stroke="#cfcfcf" stroke-width="2" d="M267,-241.16C264.49,-224.75 260.85,-201.01 257.91,-181.84"/>
<polygon fill="#cfcfcf" stroke="#cfcfcf" stroke-width="2" points="261.4,-181.49 256.43,-172.14 254.48,-182.55 261.4,-181.49"/>
<text xml:space="preserve" text-anchor="middle" x="286.89" y="-210.7" font-family="Helvetica,sans-Serif" font-size="14.00" fill="#cfcfcf">Internet</text>
</g>
<!-- mcp -->
<g id="node5" class="node">
<title>mcp</title>
<polygon fill="#8fe0a6" stroke="#2a8d4a" stroke-width="2" points="294.38,-55.5 97.62,-55.5 97.62,-16 294.38,-16 294.38,-55.5"/>
<text xml:space="preserve" text-anchor="middle" x="196" y="-38.2" font-family="Helvetica,sans-Serif" font-size="14.00" fill="#0f2416">MCP Server (This Software)</text>
<text xml:space="preserve" text-anchor="middle" x="196" y="-22.45" font-family="Helvetica,sans-Serif" font-size="14.00" fill="#0f2416">+ Your FRITZ!Box Credentials</text>
</g>
<!-- agent&#45;&gt;mcp -->
<g id="edge3" class="edge">
<title>agent&#45;&gt;mcp</title>
<path fill="none" stroke="#cfcfcf" stroke-width="2" d="M131.77,-128.16C143.74,-111.12 161.28,-86.17 175,-66.63"/>
<polygon fill="#cfcfcf" stroke="#cfcfcf" stroke-width="2" points="177.75,-68.81 180.63,-58.62 172.02,-64.79 177.75,-68.81"/>
<text xml:space="preserve" text-anchor="middle" x="170.79" y="-97.7" font-family="Helvetica,sans-Serif" font-size="14.00" fill="#cfcfcf">Local</text>
</g>
<!-- fritz&#45;&gt;mcp -->
<g id="edge4" class="edge">
<title>fritz&#45;&gt;mcp</title>
<path fill="none" stroke="#cfcfcf" stroke-width="2" d="M242.94,-128.16C234.35,-111.44 221.85,-87.09 211.91,-67.73"/>
<polygon fill="#cfcfcf" stroke="#cfcfcf" stroke-width="2" points="215.02,-66.13 207.34,-58.84 208.8,-69.33 215.02,-66.13"/>
<text xml:space="preserve" text-anchor="middle" x="263.31" y="-97.7" font-family="Helvetica,sans-Serif" font-size="14.00" fill="#cfcfcf">Local only</text>
</g>
</g>
</svg>
